<?xml version="1.0" encoding="UTF-8" standalone="no"?>
<svg width="500" height="420" viewBox="0 0 500 420" xmlns="http://www.w3.org/2000/svg" stroke="#000" stroke-width="6" fill="none" stroke-linecap="round" stroke-linejoin="round" font-family="Arial, sans-serif">
  <!-- Background -->
  <rect x="0" y="0" width="500" height="420" fill="#FFEB3B"/>

  <!-- Afro character -->
  <circle cx="120" cy="150" r="60"/>
  <path d="M60 150 a60 60 0 0 1 120 0" stroke-width="10"/>
  <circle cx="95" cy="140" r="18"/>
  <circle cx="145" cy="140" r="18"/>
  <line x1="113" y1="140" x2="127" y2="140"/>
  <circle cx="95" cy="140" r="3" fill="#000"/>
  <circle cx="145" cy="140" r="3" fill="#000"/>
  <path d="M95 175 q25 20 50 0" />
  <line x1="120" y1="210" x2="120" y2="235"/>
  <line x1="65" y1="235" x2="175" y2="235"/>

  <!-- Simple hairstyle character -->
  <circle cx="380" cy="150" r="60"/>
  <path d="M340 115 q40 -35 80 0" />
  <circle cx="355" cy="140" r="3" fill="#000"/>
  <circle cx="405" cy="140" r="3" fill="#000"/>
  <path d="M355 175 q25 20 50 0" />
  <line x1="380" y1="210" x2="380" y2="235"/>
  <line x1="325" y1="235" x2="435" y2="235"/>

  <!-- Text -->
  <text x="250" y="300" font-size="60" text-anchor="middle" fill="#000">B&amp;M</text>
  <text x="250" y="360" font-size="40" text-anchor="middle" fill="#000">Tech Store</text>
</svg>
